<svg 
          width="48" 
          height="48" fill="none" 
          xmlns="http://www.w3.org/2000/svg">
          <path d="M 0 24 C 1.1657341758564144e-15 17.634804010391235 2.5285645723342896 11.53031051158905 7.02943754196167 7.02943754196167 C 11.53031051158905 2.5285645723342896 17.634804010391235 5.995204332975845e-15 24 0 C 30.365195989608765 4.163336342344337e-15 36.469690918922424 2.5285645723342896 40.970563888549805 7.02943754196167 C 45.471436858177185 11.53031051158905 47.99999999999999 17.634804010391235 48 24 C 47.99999999999999 30.365195989608765 45.471436858177185 36.469690918922424 40.970563888549805 40.970563888549805 C 36.469690918922424 45.471436858177185 30.365195989608765 47.99999999999999 24 48 C 17.634804010391235 47.99999999999999 11.53031051158905 45.471436858177185 7.02943754196167 40.970563888549805 C 2.5285645723342896 36.469690918922424 3.497202527569243e-15 30.365195989608765 0 24 Z M 24 3 C 20.045334219932556 3.000210553931538 16.171099305152893 4.117088198661804 12.82320785522461 6.222083330154419 C 9.475316405296326 8.327078461647034 6.789848148822784 11.334631562232971 5.075892448425293 14.89858102798462 C 3.3619367480278015 18.462530493736267 2.689159333705902 22.438016295433044 3.134995222091675 26.367470741271973 C 3.5808311104774475 30.2969251871109 5.127158939838409 34.02063024044037 7.5960001945495605 37.109999656677246 C 9.726000130176544 33.67799949645996 14.415000200271606 30 24 30 C 33.584999799728394 30 38.271001160144806 33.674999713897705 40.404001235961914 37.109999656677246 C 42.872842490673065 34.02063024044037 44.41916960477829 30.2969251871109 44.86500549316406 26.367470741271973 C 45.310841381549835 22.438016295433044 44.6380632519722 18.462530493736267 42.92410755157471 14.89858102798462 C 41.210151851177216 11.334631562232971 38.524683594703674 8.327078461647034 35.17679214477539 6.222083330154419 C 31.828900694847107 4.117088198661804 27.954665780067444 3.000210553931538 24 3 Z" fill="rgb(137.06250607967377,137.06250607967377,137.06250607967377)"/>
        </svg>